<svg width="181" height="20" viewBox="0 0 181 20" fill="none" xmlns="http://www.w3.org/2000/svg">
<path d="M5.792 2.176C8.288 2.176 10.2 2.624 11.528 3.52C12.856 4.4 13.52 5.776 13.52 7.648C13.52 8.816 13.248 9.768 12.704 10.504C12.176 11.224 11.408 11.792 10.4 12.208C10.736 12.624 11.088 13.104 11.456 13.648C11.824 14.176 12.184 14.736 12.536 15.328C12.904 15.904 13.256 16.512 13.592 17.152C13.928 17.776 14.24 18.392 14.528 19H10.328C10.024 18.456 9.712 17.904 9.392 17.344C9.088 16.784 8.768 16.24 8.432 15.712C8.112 15.184 7.792 14.688 7.472 14.224C7.152 13.744 6.832 13.312 6.512 12.928H4.664V19H0.92V2.608C1.736 2.448 2.576 2.336 3.44 2.272C4.32 2.208 5.104 2.176 5.792 2.176ZM6.008 5.368C5.736 5.368 5.488 5.376 5.264 5.392C5.056 5.408 4.856 5.424 4.664 5.44V9.952H5.72C7.128 9.952 8.136 9.776 8.744 9.424C9.352 9.072 9.656 8.472 9.656 7.624C9.656 6.808 9.344 6.232 8.72 5.896C8.112 5.544 7.208 5.368 6.008 5.368ZM15.4784 12.784C15.4784 11.664 15.6464 10.688 15.9824 9.856C16.3344 9.008 16.7904 8.304 17.3504 7.744C17.9104 7.184 18.5504 6.76 19.2704 6.472C20.0064 6.184 20.7584 6.04 21.5264 6.04C23.3184 6.04 24.7344 6.592 25.7744 7.696C26.8144 8.784 27.3344 10.392 27.3344 12.52C27.3344 12.728 27.3264 12.96 27.3104 13.216C27.2944 13.456 27.2784 13.672 27.2624 13.864H19.1504C19.2304 14.6 19.5744 15.184 20.1824 15.616C20.7904 16.048 21.6064 16.264 22.6304 16.264C23.2864 16.264 23.9264 16.208 24.5504 16.096C25.1904 15.968 25.7104 15.816 26.1104 15.64L26.5904 18.544C26.3984 18.64 26.1424 18.736 25.8224 18.832C25.5024 18.928 25.1424 19.008 24.7424 19.072C24.3584 19.152 23.9424 19.216 23.4944 19.264C23.0464 19.312 22.5984 19.336 22.1504 19.336C21.0144 19.336 20.0224 19.168 19.1744 18.832C18.3424 18.496 17.6464 18.04 17.0864 17.464C16.5424 16.872 16.1344 16.176 15.8624 15.376C15.6064 14.576 15.4784 13.712 15.4784 12.784ZM23.8784 11.416C23.8624 11.112 23.8064 10.816 23.7104 10.528C23.6304 10.24 23.4944 9.984 23.3024 9.76C23.1264 9.536 22.8944 9.352 22.6064 9.208C22.3344 9.064 21.9904 8.992 21.5744 8.992C21.1744 8.992 20.8304 9.064 20.5424 9.208C20.2544 9.336 20.0144 9.512 19.8224 9.736C19.6304 9.96 19.4784 10.224 19.3664 10.528C19.2704 10.816 19.1984 11.112 19.1504 11.416H23.8784ZM34.9181 16.504C35.2701 16.504 35.6061 16.496 35.9261 16.48C36.2461 16.464 36.5021 16.44 36.6941 16.408V13.696C36.5501 13.664 36.3341 13.632 36.0461 13.6C35.7581 13.568 35.4941 13.552 35.2541 13.552C34.9181 13.552 34.5981 13.576 34.2941 13.624C34.0061 13.656 33.7501 13.728 33.5261 13.84C33.3021 13.952 33.1261 14.104 32.9981 14.296C32.8701 14.488 32.8061 14.728 32.8061 15.016C32.8061 15.576 32.9901 15.968 33.3581 16.192C33.7421 16.4 34.2621 16.504 34.9181 16.504ZM34.6301 6.04C35.6861 6.04 36.5661 6.16 37.2701 6.4C37.9741 6.64 38.5341 6.984 38.9501 7.432C39.3821 7.88 39.6861 8.424 39.8621 9.064C40.0381 9.704 40.1261 10.416 40.1261 11.2V18.64C39.6141 18.752 38.9021 18.88 37.9901 19.024C37.0781 19.184 35.9741 19.264 34.6781 19.264C33.8621 19.264 33.1181 19.192 32.4461 19.048C31.7901 18.904 31.2221 18.672 30.7421 18.352C30.2621 18.016 29.8941 17.584 29.6381 17.056C29.3821 16.528 29.2541 15.88 29.2541 15.112C29.2541 14.376 29.3981 13.752 29.6861 13.24C29.9901 12.728 30.3901 12.32 30.8861 12.016C31.3821 11.712 31.9501 11.496 32.5901 11.368C33.2301 11.224 33.8941 11.152 34.5821 11.152C35.0461 11.152 35.4541 11.176 35.8061 11.224C36.1741 11.256 36.4701 11.304 36.6941 11.368V11.032C36.6941 10.424 36.5101 9.936 36.1421 9.568C35.7741 9.2 35.1341 9.016 34.2221 9.016C33.6141 9.016 33.0141 9.064 32.4221 9.16C31.8301 9.24 31.3181 9.36 30.8861 9.52L30.4301 6.64C30.6381 6.576 30.8941 6.512 31.1981 6.448C31.5181 6.368 31.8621 6.304 32.2301 6.256C32.5981 6.192 32.9821 6.144 33.3821 6.112C33.7981 6.064 34.2141 6.04 34.6301 6.04ZM48.3997 19.24C47.3597 19.224 46.5117 19.112 45.8557 18.904C45.2157 18.696 44.7037 18.408 44.3197 18.04C43.9517 17.656 43.6957 17.2 43.5517 16.672C43.4237 16.128 43.3597 15.52 43.3597 14.848V0.951999L46.9357 0.375999V14.128C46.9357 14.448 46.9597 14.736 47.0077 14.992C47.0557 15.248 47.1437 15.464 47.2717 15.64C47.4157 15.816 47.6157 15.96 47.8717 16.072C48.1277 16.184 48.4717 16.256 48.9037 16.288L48.3997 19.24ZM50.8334 3.232L54.4094 2.656V6.376H58.7054V9.352H54.4094V13.792C54.4094 14.544 54.5374 15.144 54.7934 15.592C55.0654 16.04 55.6014 16.264 56.4014 16.264C56.7854 16.264 57.1774 16.232 57.5774 16.168C57.9934 16.088 58.3694 15.984 58.7054 15.856L59.2094 18.64C58.7774 18.816 58.2974 18.968 57.7694 19.096C57.2414 19.224 56.5934 19.288 55.8254 19.288C54.8494 19.288 54.0414 19.16 53.4014 18.904C52.7614 18.632 52.2494 18.264 51.8654 17.8C51.4814 17.32 51.2094 16.744 51.0494 16.072C50.9054 15.4 50.8334 14.656 50.8334 13.84V3.232ZM65.1935 19H61.6175V6.376H65.1935V19ZM65.5295 2.728C65.5295 3.384 65.3135 3.904 64.8815 4.288C64.4655 4.656 63.9695 4.84 63.3935 4.84C62.8175 4.84 62.3135 4.656 61.8815 4.288C61.4655 3.904 61.2575 3.384 61.2575 2.728C61.2575 2.072 61.4655 1.56 61.8815 1.192C62.3135 0.807999 62.8175 0.615999 63.3935 0.615999C63.9695 0.615999 64.4655 0.807999 64.8815 1.192C65.3135 1.56 65.5295 2.072 65.5295 2.728ZM75.491 12.304C75.491 11.152 75.339 10.336 75.035 9.856C74.747 9.376 74.243 9.136 73.523 9.136C73.299 9.136 73.067 9.152 72.827 9.184C72.587 9.2 72.355 9.224 72.131 9.256V19H68.555V6.808C68.859 6.728 69.211 6.648 69.611 6.568C70.027 6.472 70.459 6.392 70.907 6.328C71.371 6.248 71.843 6.192 72.323 6.16C72.803 6.112 73.275 6.088 73.739 6.088C74.651 6.088 75.387 6.208 75.947 6.448C76.523 6.672 76.995 6.944 77.363 7.264C77.875 6.896 78.459 6.608 79.115 6.4C79.787 6.192 80.403 6.088 80.963 6.088C81.971 6.088 82.795 6.232 83.435 6.52C84.091 6.792 84.611 7.184 84.995 7.696C85.379 8.208 85.643 8.816 85.787 9.52C85.931 10.224 86.003 11.008 86.003 11.872V19H82.427V12.304C82.427 11.152 82.275 10.336 81.971 9.856C81.683 9.376 81.179 9.136 80.459 9.136C80.267 9.136 79.995 9.184 79.643 9.28C79.307 9.376 79.027 9.496 78.803 9.64C78.915 10.008 78.987 10.4 79.019 10.816C79.051 11.216 79.067 11.648 79.067 12.112V19H75.491V12.304ZM88.6503 12.784C88.6503 11.664 88.8183 10.688 89.1543 9.856C89.5063 9.008 89.9623 8.304 90.5223 7.744C91.0823 7.184 91.7223 6.76 92.4423 6.472C93.1783 6.184 93.9303 6.04 94.6983 6.04C96.4903 6.04 97.9063 6.592 98.9463 7.696C99.9863 8.784 100.506 10.392 100.506 12.52C100.506 12.728 100.498 12.96 100.482 13.216C100.466 13.456 100.45 13.672 100.434 13.864H92.3223C92.4023 14.6 92.7463 15.184 93.3543 15.616C93.9623 16.048 94.7783 16.264 95.8023 16.264C96.4583 16.264 97.0983 16.208 97.7223 16.096C98.3623 15.968 98.8823 15.816 99.2823 15.64L99.7623 18.544C99.5703 18.64 99.3143 18.736 98.9943 18.832C98.6743 18.928 98.3143 19.008 97.9143 19.072C97.5303 19.152 97.1143 19.216 96.6663 19.264C96.2183 19.312 95.7703 19.336 95.3223 19.336C94.1863 19.336 93.1943 19.168 92.3463 18.832C91.5143 18.496 90.8183 18.04 90.2583 17.464C89.7143 16.872 89.3063 16.176 89.0343 15.376C88.7783 14.576 88.6503 13.712 88.6503 12.784ZM97.0503 11.416C97.0343 11.112 96.9783 10.816 96.8823 10.528C96.8023 10.24 96.6663 9.984 96.4743 9.76C96.2983 9.536 96.0663 9.352 95.7783 9.208C95.5063 9.064 95.1623 8.992 94.7463 8.992C94.3463 8.992 94.0023 9.064 93.7143 9.208C93.4263 9.336 93.1863 9.512 92.9943 9.736C92.8023 9.96 92.6503 10.224 92.5383 10.528C92.4423 10.816 92.3703 11.112 92.3223 11.416H97.0503ZM116.856 19.336C114.152 19.336 112.088 18.584 110.664 17.08C109.256 15.576 108.552 13.44 108.552 10.672C108.552 9.296 108.768 8.072 109.2 7C109.632 5.912 110.224 5 110.976 4.264C111.728 3.512 112.624 2.944 113.664 2.56C114.704 2.176 115.832 1.984 117.048 1.984C117.752 1.984 118.392 2.04 118.968 2.152C119.544 2.248 120.048 2.368 120.48 2.512C120.912 2.64 121.272 2.776 121.56 2.92C121.848 3.064 122.056 3.176 122.184 3.256L121.104 6.28C120.592 6.008 119.992 5.776 119.304 5.584C118.632 5.392 117.864 5.296 117 5.296C116.424 5.296 115.856 5.392 115.296 5.584C114.752 5.776 114.264 6.088 113.832 6.52C113.416 6.936 113.08 7.48 112.824 8.152C112.568 8.824 112.44 9.64 112.44 10.6C112.44 11.368 112.52 12.088 112.68 12.76C112.856 13.416 113.128 13.984 113.496 14.464C113.88 14.944 114.376 15.328 114.984 15.616C115.592 15.888 116.328 16.024 117.192 16.024C117.736 16.024 118.224 15.992 118.656 15.928C119.088 15.864 119.472 15.792 119.808 15.712C120.144 15.616 120.44 15.512 120.696 15.4C120.952 15.288 121.184 15.184 121.392 15.088L122.424 18.088C121.896 18.408 121.152 18.696 120.192 18.952C119.232 19.208 118.12 19.336 116.856 19.336ZM136.121 12.664C136.121 13.656 135.977 14.568 135.689 15.4C135.401 16.216 134.985 16.92 134.441 17.512C133.897 18.088 133.241 18.536 132.473 18.856C131.721 19.176 130.873 19.336 129.929 19.336C129.001 19.336 128.153 19.176 127.385 18.856C126.633 18.536 125.985 18.088 125.441 17.512C124.897 16.92 124.473 16.216 124.169 15.4C123.865 14.568 123.713 13.656 123.713 12.664C123.713 11.672 123.865 10.768 124.169 9.952C124.489 9.136 124.921 8.44 125.465 7.864C126.025 7.288 126.681 6.84 127.433 6.52C128.201 6.2 129.033 6.04 129.929 6.04C130.841 6.04 131.673 6.2 132.425 6.52C133.193 6.84 133.849 7.288 134.393 7.864C134.937 8.44 135.361 9.136 135.665 9.952C135.969 10.768 136.121 11.672 136.121 12.664ZM132.473 12.664C132.473 11.56 132.249 10.696 131.801 10.072C131.369 9.432 130.745 9.112 129.929 9.112C129.113 9.112 128.481 9.432 128.033 10.072C127.585 10.696 127.361 11.56 127.361 12.664C127.361 13.768 127.585 14.648 128.033 15.304C128.481 15.944 129.113 16.264 129.929 16.264C130.745 16.264 131.369 15.944 131.801 15.304C132.249 14.648 132.473 13.768 132.473 12.664ZM143.931 19.24C142.891 19.224 142.043 19.112 141.387 18.904C140.747 18.696 140.235 18.408 139.851 18.04C139.483 17.656 139.227 17.2 139.083 16.672C138.955 16.128 138.891 15.52 138.891 14.848V0.951999L142.467 0.375999V14.128C142.467 14.448 142.491 14.736 142.539 14.992C142.587 15.248 142.675 15.464 142.803 15.64C142.947 15.816 143.147 15.96 143.403 16.072C143.659 16.184 144.003 16.256 144.435 16.288L143.931 19.24ZM158.293 12.664C158.293 13.656 158.149 14.568 157.861 15.4C157.573 16.216 157.157 16.92 156.613 17.512C156.069 18.088 155.413 18.536 154.645 18.856C153.893 19.176 153.045 19.336 152.101 19.336C151.173 19.336 150.325 19.176 149.557 18.856C148.805 18.536 148.157 18.088 147.613 17.512C147.069 16.92 146.645 16.216 146.341 15.4C146.037 14.568 145.885 13.656 145.885 12.664C145.885 11.672 146.037 10.768 146.341 9.952C146.661 9.136 147.093 8.44 147.637 7.864C148.197 7.288 148.853 6.84 149.605 6.52C150.373 6.2 151.205 6.04 152.101 6.04C153.013 6.04 153.845 6.2 154.597 6.52C155.365 6.84 156.021 7.288 156.565 7.864C157.109 8.44 157.533 9.136 157.837 9.952C158.141 10.768 158.293 11.672 158.293 12.664ZM154.645 12.664C154.645 11.56 154.421 10.696 153.973 10.072C153.541 9.432 152.917 9.112 152.101 9.112C151.285 9.112 150.653 9.432 150.205 10.072C149.757 10.696 149.533 11.56 149.533 12.664C149.533 13.768 149.757 14.648 150.205 15.304C150.653 15.944 151.285 16.264 152.101 16.264C152.917 16.264 153.541 15.944 153.973 15.304C154.421 14.648 154.645 13.768 154.645 12.664ZM168.671 9.544C168.351 9.464 167.975 9.384 167.543 9.304C167.111 9.208 166.647 9.16 166.151 9.16C165.927 9.16 165.655 9.184 165.335 9.232C165.031 9.264 164.799 9.304 164.639 9.352V19H161.063V7.048C161.703 6.824 162.455 6.616 163.319 6.424C164.199 6.216 165.175 6.112 166.247 6.112C166.439 6.112 166.671 6.128 166.943 6.16C167.215 6.176 167.487 6.208 167.759 6.256C168.031 6.288 168.303 6.336 168.575 6.4C168.847 6.448 169.079 6.512 169.271 6.592L168.671 9.544ZM174.812 16.432C175.468 16.432 175.932 16.368 176.204 16.24C176.476 16.112 176.612 15.864 176.612 15.496C176.612 15.208 176.436 14.96 176.084 14.752C175.732 14.528 175.196 14.28 174.476 14.008C173.916 13.8 173.404 13.584 172.94 13.36C172.492 13.136 172.108 12.872 171.788 12.568C171.468 12.248 171.22 11.872 171.044 11.44C170.868 11.008 170.78 10.488 170.78 9.88C170.78 8.696 171.22 7.76 172.1 7.072C172.98 6.384 174.188 6.04 175.724 6.04C176.492 6.04 177.228 6.112 177.932 6.256C178.636 6.384 179.196 6.528 179.612 6.688L178.988 9.472C178.572 9.328 178.116 9.2 177.62 9.088C177.14 8.976 176.596 8.92 175.988 8.92C174.868 8.92 174.308 9.232 174.308 9.856C174.308 10 174.332 10.128 174.38 10.24C174.428 10.352 174.524 10.464 174.668 10.576C174.812 10.672 175.004 10.784 175.244 10.912C175.5 11.024 175.82 11.152 176.204 11.296C176.988 11.584 177.636 11.872 178.148 12.16C178.66 12.432 179.06 12.736 179.348 13.072C179.652 13.392 179.86 13.752 179.972 14.152C180.1 14.552 180.164 15.016 180.164 15.544C180.164 16.792 179.692 17.736 178.748 18.376C177.82 19.016 176.5 19.336 174.788 19.336C173.668 19.336 172.732 19.24 171.98 19.048C171.244 18.856 170.732 18.696 170.444 18.568L171.044 15.664C171.652 15.904 172.276 16.096 172.916 16.24C173.556 16.368 174.188 16.432 174.812 16.432Z" fill="#090806"/>
</svg>
